<?xml version="1.0" encoding="iso-8859-1"?>
<!-- Generator: Adobe Illustrator 18.1.1, SVG Export Plug-In . SVG Version: 6.00 Build 0)  -->
<svg version="1.1" id="_x39_" xmlns="http://www.w3.org/2000/svg" xmlns:xlink="http://www.w3.org/1999/xlink" x="0px" y="0px"
	 viewBox="0 185 512 125" style="enable-background:new 0 0 512 512;" xml:space="preserve" preserveAspectRatio="xMidYMax meet">
<g>
	<rect x="87.218" y="274.853" width="11.465" height="0.641"/>
	<rect x="87.218" y="280.728" width="11.465" height="0.642"/>
	<rect x="87.218" y="286.603" width="11.465" height="0.642"/>
	<rect x="87.218" y="292.479" width="11.465" height="0.642"/>
	<rect x="87.218" y="298.354" width="11.465" height="0.642"/>
	<path d="M406.061,237.503h24.923l-4.004-3.65c-0.079-2.771-2.346-4.995-5.136-4.996c-0.068,0-0.131,0.005-0.197,0.007
		c-1.259-1.625-3.231-2.675-5.446-2.675c-2.214,0-4.184,1.048-5.443,2.673c-3.074,0.058-5.547,2.564-5.548,5.651
		c0,1.03,0.276,1.997,0.757,2.829L406.061,237.503z M407.321,230.968c0.909-0.907,2.159-1.467,3.544-1.468l0.043,0.001l0.168,0.006
		l0.099-0.136c1.14-1.54,2.965-2.538,5.026-2.538c2.066,0,3.897,1.003,5.034,2.549l0.104,0.141l0.175-0.011
		c0.112-0.007,0.222-0.012,0.329-0.012c1.243,0,2.367,0.504,3.182,1.319c0.816,0.816,1.318,1.94,1.318,3.183v0.141l0.105,0.096
		l2.876,2.622h-22.889c-0.372-0.701-0.585-1.497-0.585-2.347C405.853,233.128,406.413,231.877,407.321,230.968z"/>
	<path d="M77.22,226.299h24.923l-4.003-3.65c-0.079-2.771-2.345-4.995-5.136-4.995c-0.068,0-0.131,0.004-0.197,0.007
		c-1.259-1.624-3.23-2.674-5.445-2.674c-2.214,0-4.184,1.048-5.443,2.673c-3.074,0.058-5.548,2.563-5.548,5.65
		c0,1.03,0.276,1.998,0.757,2.829L77.22,226.299z M78.481,219.765c0.908-0.908,2.16-1.468,3.544-1.469l0.041,0.002l0.169,0.005
		l0.1-0.136c1.139-1.54,2.964-2.539,5.026-2.539c2.067,0,3.896,1.003,5.035,2.549l0.104,0.141l0.175-0.011
		c0.112-0.007,0.222-0.013,0.328-0.013c1.244,0.001,2.368,0.504,3.183,1.319c0.815,0.815,1.319,1.939,1.319,3.183v0.141l0.105,0.096
		l2.876,2.622H77.597c-0.372-0.7-0.585-1.497-0.585-2.348C77.013,221.925,77.573,220.673,78.481,219.765z"/>
	<path d="M254.532,212.375h24.923l-4.004-3.65c-0.079-2.771-2.346-4.996-5.136-4.996c-0.068,0-0.132,0.005-0.198,0.008
		c-1.259-1.625-3.23-2.674-5.445-2.674c-2.215,0-4.184,1.048-5.444,2.672c-3.074,0.058-5.547,2.563-5.548,5.651
		c0,1.029,0.276,1.996,0.757,2.828L254.532,212.375z M255.793,205.84c0.908-0.908,2.159-1.467,3.544-1.469l0.042,0.001l0.168,0.005
		l0.1-0.135c1.139-1.541,2.964-2.538,5.026-2.538c2.066,0,3.896,1.003,5.035,2.549l0.104,0.141l0.175-0.011
		c0.112-0.007,0.221-0.012,0.329-0.012c1.243,0,2.367,0.503,3.182,1.319c0.816,0.816,1.318,1.94,1.319,3.184v0.141l0.104,0.095
		l2.876,2.622h-22.889c-0.372-0.701-0.585-1.498-0.585-2.347C254.324,208,254.885,206.748,255.793,205.84z"/>
	<path d="M356.946,200.503c0-2.821-2.286-5.107-5.107-5.107c-2.82,0.001-5.106,2.287-5.106,5.107c0,2.821,2.286,5.107,5.106,5.107
		C354.659,205.611,356.946,203.324,356.946,200.503z M351.838,204.969c-1.233,0-2.347-0.5-3.157-1.308
		c-0.809-0.809-1.308-1.923-1.308-3.158c0-1.234,0.499-2.348,1.308-3.157c0.809-0.809,1.923-1.308,3.157-1.308
		c1.234,0,2.348,0.499,3.158,1.308c0.808,0.809,1.307,1.924,1.307,3.157c0,1.234-0.499,2.348-1.307,3.158
		C354.187,204.469,353.073,204.968,351.838,204.969z"/>
	<rect x="351.518" y="189.936" width="0.641" height="3.425"/>
	<rect x="351.518" y="207.645" width="0.641" height="3.425"/>
	
		<rect x="345.699" y="192.514" transform="matrix(0.4999 0.8661 -0.8661 0.4999 340.7328 -204.4502)" width="3.425" height="0.642"/>
	<rect x="354.554" y="207.851" transform="matrix(0.5 0.866 -0.866 0.5 358.4069 -204.4496)" width="3.425" height="0.642"/>
	<rect x="342.458" y="195.755" transform="matrix(0.866 0.5001 -0.5001 0.866 144.1936 -145.8425)" width="3.425" height="0.642"/>
	<rect x="357.795" y="204.61" transform="matrix(0.8662 0.4998 -0.4998 0.8662 150.5398 -152.2455)" width="3.425" height="0.641"/>
	<rect x="341.271" y="200.183" width="3.426" height="0.642"/>
	<rect x="358.98" y="200.183" width="3.426" height="0.642"/>
	
		<rect x="343.849" y="203.217" transform="matrix(-0.5006 -0.8657 0.8657 -0.5006 339.0434 605.4586)" width="0.642" height="3.425"/>
	<rect x="359.186" y="194.363" transform="matrix(0.5 0.866 -0.866 0.5 349.5409 -213.3039)" width="0.642" height="3.425"/>
	
		<rect x="347.091" y="206.459" transform="matrix(0.8658 0.5004 -0.5004 0.8658 150.7848 -145.9022)" width="0.642" height="3.425"/>
	
		<rect x="355.945" y="191.122" transform="matrix(0.8658 0.5004 -0.5004 0.8658 144.3188 -152.4029)" width="0.642" height="3.425"/>
	<rect x="187.118" y="220.557" width="6.604" height="0.642"/>
	<rect x="187.118" y="226.745" width="6.604" height="0.642"/>
	<rect x="187.118" y="232.933" width="6.604" height="0.642"/>
	<rect x="187.118" y="239.122" width="6.604" height="0.642"/>
	<rect x="187.118" y="245.31" width="6.604" height="0.642"/>
	<rect x="187.118" y="251.499" width="6.604" height="0.641"/>
	<rect x="187.118" y="257.687" width="6.604" height="0.642"/>
	<rect x="187.118" y="263.875" width="6.604" height="0.642"/>
	<rect x="187.118" y="270.063" width="6.604" height="0.642"/>
	<rect x="187.118" y="276.252" width="6.604" height="0.642"/>
	<rect x="187.118" y="282.44" width="6.604" height="0.642"/>
	<rect x="187.118" y="288.628" width="6.604" height="0.642"/>
	<path d="M501.938,307.526c-5.641-0.982-11.795-4.923-16.975-10.019v-0.021h-0.021c-0.352-0.346-0.699-0.698-1.041-1.054
		c-5.389-5.605-9.548-12.386-10.74-18.044v-9.399h-0.641v9.399c-1.193,5.658-5.352,12.44-10.74,18.044
		c-0.342,0.356-0.69,0.708-1.041,1.054h-0.248v0.242c-5.123,4.98-11.167,8.817-16.718,9.793c-5.593-0.984-11.686-4.871-16.833-9.906
		v-0.129h-0.132c-0.353-0.346-0.699-0.698-1.041-1.054c-5.388-5.605-9.548-12.386-10.74-18.044v-9.399h-0.641v9.399
		c-1.193,5.658-5.352,12.44-10.741,18.044c-0.342,0.356-0.688,0.708-1.04,1.054h-0.137v0.134c-5.156,5.041-11.26,8.932-16.86,9.907
		h-4.061h-5.742c0-1.599,0-9.192,0-21.192c-0.001-8.313-3.001-16.539-8.431-22.697c-5.429-6.158-13.303-10.241-23.001-10.239
		c-0.439,0-0.88,0.008-1.326,0.025l-0.309,0.012v0.309v53.782h-6.395v-2.182c2.214-0.165,3.961-2.009,3.962-4.265
		c-0.001-2.366-1.918-4.283-4.282-4.283c-1.049,0-2.01,0.379-2.754,1.005c-0.676-2.078-2.626-3.581-4.929-3.581
		c-2.864,0-5.185,2.321-5.185,5.184c0,2.755,2.151,5.001,4.864,5.168v2.953h-5.309l-3.914-16.684
		c9.212-2.301,16.036-10.629,16.036-20.554c0-11.702-9.485-21.187-21.188-21.188c-11.701,0-21.186,9.486-21.186,21.188
		c0,9.925,6.824,18.252,16.036,20.553l-3.914,16.685h-16.666v-36.604h-8.557c-1.023,0-1.944-0.372-2.605-0.965
		c-0.661-0.594-1.061-1.399-1.061-2.288v-0.361c0-1.086-0.493-2.066-1.274-2.766c-0.782-0.701-1.855-1.129-3.034-1.129h-6.572
		v44.114h-2.269v-45.678h-8.558c-1.023,0-1.944-0.372-2.605-0.965c-0.661-0.594-1.06-1.4-1.061-2.288l0-0.361
		c0.001-1.086-0.493-2.066-1.274-2.766c-0.782-0.701-1.854-1.129-3.033-1.129h-6.572v53.187h-2.269v-53.845h-8.558
		c-1.023,0-1.944-0.372-2.605-0.965c-0.661-0.594-1.06-1.4-1.061-2.288l0-0.361c0.001-1.086-0.493-2.067-1.274-2.766
		c-0.782-0.701-1.854-1.129-3.033-1.129h-6.573v61.354h-3.148l-8.218-53.782v-46.502h-8.79v4.679h-6.978l0.001-4.679h-8.791v46.502
		l-8.218,53.782h-2.739v-15.953h-0.152l-9.283-13.55h-19.343v-3.533h-0.642v3.533h-19.343l-9.283,13.55h-0.152v15.953h-4.247
		v-38.979H81.166v38.979H67.295l-0.128-2.964c2.628-0.276,4.64-2.492,4.641-5.146c-0.001-0.075-0.002-0.151-0.006-0.227l-0.32,0.014
		l0.32-0.014c-0.121-2.784-2.415-4.96-5.176-4.961c-0.076,0-0.151,0.001-0.228,0.005c-2.785,0.12-4.961,2.415-4.961,5.176
		c0,0.076,0.002,0.152,0.005,0.228c0.119,2.753,2.364,4.907,5.082,4.956l0.127,2.934H50.301v-18.885h5.188l-2.08-6.934h-7.073v-5.1
		H32.322v5.1h-7.074l-2.081,6.934h5.188v18.885H18.178v-2.182c2.214-0.165,3.961-2.009,3.961-4.265c0-2.366-1.917-4.283-4.282-4.283
		c-1.048,0-2.01,0.379-2.754,1.005c-0.675-2.078-2.625-3.581-4.929-3.581c-2.863,0-5.184,2.321-5.184,5.184
		c0,2.755,2.15,5.001,4.863,5.168v2.953H0v0.642h81.166h23.571h4.247h18.391h10.708h10.708h18.391h2.641h14.434h12.326h14.433h3.05
		h23.104h2.269h0.321h22.461h0.322h2.269h23.103h54.823h33.067h5.742h32.839v13.895h0.641v-13.895h57.494v13.895h0.641v-13.895H512
		v-0.642H501.938z M9.853,301.212c-0.14-0.062-0.303-0.143-0.461-0.245c-0.195-0.125-0.379-0.28-0.505-0.453
		c-0.128-0.175-0.202-0.359-0.203-0.583H8.042l0,0c-0.001,0.389,0.144,0.726,0.346,0.988c0.303,0.395,0.721,0.648,1.061,0.814
		c0.156,0.076,0.296,0.131,0.403,0.171v2.026c-1.126-0.078-2.139-0.562-2.891-1.313c-0.823-0.823-1.33-1.957-1.331-3.212
		c0-1.255,0.508-2.389,1.331-3.212c0.823-0.823,1.957-1.33,3.212-1.33c1.255,0,2.389,0.508,3.212,1.33
		c0.823,0.823,1.33,1.956,1.33,3.212s-0.508,2.389-1.33,3.212c-0.752,0.752-1.764,1.235-2.891,1.313v-4.525H9.853V301.212z
		 M17.536,307.526h-7.041v-2.953c1.381-0.085,2.613-0.708,3.493-1.665c0.643,1.357,1.977,2.322,3.548,2.438V307.526z
		 M17.536,304.703c-1.425-0.124-2.612-1.071-3.091-2.362c0.576-0.835,0.914-1.846,0.914-2.936c0-0.311-0.032-0.615-0.085-0.91
		l0.009,0.009c0.66-0.659,1.568-1.066,2.574-1.066c1.006,0,1.914,0.407,2.574,1.066c0.659,0.66,1.066,1.568,1.066,2.575
		c0,1.005-0.407,1.914-1.066,2.573c-0.588,0.588-1.376,0.973-2.253,1.05v-1.547c0.154-0.058,0.368-0.151,0.593-0.29
		c0.205-0.128,0.418-0.294,0.588-0.517c0.17-0.221,0.295-0.51,0.294-0.841h-0.641h0c0,0.173-0.059,0.314-0.163,0.452
		c-0.154,0.206-0.422,0.38-0.654,0.491l-0.016,0.007v-1.379h-0.642V304.703z M32.964,277.248h12.729v6.999H32.964V277.248z
		 M24.031,287.999l1.695-5.649h6.596v2.54h14.013v-0.321v-2.219h6.596l1.695,5.649H24.031z M49.659,307.526H28.998v-18.885h20.661
		V307.526z M66.943,299.399l-0.641,0.027l0.078,1.807c-0.144-0.056-0.309-0.13-0.472-0.225c-0.2-0.116-0.39-0.263-0.525-0.431
		c-0.135-0.169-0.216-0.35-0.227-0.574l-0.641,0.028l0,0c0.016,0.389,0.176,0.719,0.389,0.973c0.32,0.381,0.748,0.616,1.095,0.767
		c0.16,0.068,0.302,0.118,0.412,0.153l0.088,2.025c-2.363-0.063-4.31-1.941-4.413-4.341c-0.003-0.067-0.005-0.133-0.005-0.199
		c0-2.417,1.907-4.43,4.347-4.535c0.067-0.003,0.133-0.004,0.2-0.004c2.417,0,4.43,1.907,4.534,4.346
		c0.003,0.067,0.005,0.133,0.005,0.2c0,2.31-1.743,4.246-4.026,4.505L66.943,299.399z M81.807,307.526v-38.337h22.287v38.337H81.807
		z M118.758,278.664h38.651l8.844,12.909h-17.334l-10.835-10.163l-10.835,10.163h-17.334L118.758,278.664z M166.541,307.526h-17.749
		h-10.708h-10.708h-17.749v-15.31h17.876l10.582-9.925l10.582,9.925h17.876V307.526z M195.941,307.526h-11.042v-9.01h11.042V307.526
		z M196.583,307.526v-9.652h-12.326v9.652h-13.685l8.21-53.734v-45.909h7.507v4.679h8.261v-4.679h7.507v45.909l0.004,0.024
		l8.207,53.71H196.583z M236.527,307.526h-21.819v-6.784h21.819V307.526z M236.527,300.1h-21.819v-10.079h21.819V300.1z
		 M236.527,289.38h-21.819v-8.432h21.819V289.38z M236.527,280.306h-21.819v-8.432h21.819V280.306z M236.527,271.233h-21.819v-8.432
		h21.819V271.233z M236.527,262.159h-21.819v-15.346h5.93c1.023,0,1.943,0.372,2.605,0.965c0.661,0.594,1.06,1.4,1.061,2.288v0.361
		c0,1.086,0.493,2.066,1.275,2.766c0.782,0.701,1.854,1.129,3.034,1.129h7.915V262.159z M240.08,254.981h5.93
		c1.023,0,1.943,0.371,2.605,0.964c0.661,0.594,1.061,1.4,1.061,2.288v0.361c-0.001,1.086,0.493,2.066,1.274,2.766
		c0.781,0.701,1.854,1.129,3.033,1.129h7.915v8.742H240.08V254.981z M261.9,307.526h-21.82v-8.431h21.82V307.526z M261.9,298.453
		h-21.82v-8.431h21.82V298.453z M261.9,289.38h-21.82v-8.432h21.82V289.38z M240.08,280.306v-8.432H261.9l0,8.432H240.08z
		 M287.272,307.526h-21.82v-8.431h21.82V307.526z M287.272,298.453h-21.82v-8.431h21.82V298.453z M287.272,289.38h-21.82v-8.432
		h21.82V289.38z M287.272,280.306h-21.82v-16.252h5.931c1.023,0,1.943,0.372,2.605,0.965c0.661,0.594,1.061,1.4,1.061,2.288v0.361
		c0,1.086,0.493,2.066,1.275,2.766c0.781,0.701,1.854,1.129,3.033,1.129h7.916V280.306z M299.117,284.815
		c-3.719-3.718-6.017-8.853-6.018-14.527c0.001-5.675,2.299-10.809,6.018-14.527c3.719-3.719,8.853-6.018,14.527-6.018
		c5.675,0,10.809,2.299,14.528,6.018c3.719,3.719,6.017,8.852,6.018,14.527c-0.001,5.674-2.299,10.809-6.018,14.527
		c-2.587,2.587-5.861,4.485-9.523,5.402l-5.005-21.334l-5.004,21.334C304.977,289.3,301.704,287.403,299.117,284.815z
		 M318.023,290.361c-1.411,0.307-2.875,0.473-4.379,0.473c-1.503,0-2.967-0.166-4.378-0.473l4.378-18.668L318.023,290.361z
		 M305.239,307.526l3.88-16.54c1.459,0.318,2.971,0.49,4.525,0.49c1.554,0,3.067-0.172,4.526-0.49l3.88,16.54H305.239z
		 M328.018,301.212c-0.141-0.062-0.304-0.143-0.462-0.245c-0.194-0.125-0.378-0.28-0.505-0.453
		c-0.127-0.175-0.201-0.359-0.202-0.583h-0.642c-0.001,0.389,0.145,0.726,0.346,0.988c0.303,0.395,0.721,0.648,1.061,0.814
		c0.156,0.076,0.296,0.131,0.404,0.171v2.026c-1.127-0.078-2.14-0.562-2.892-1.313c-0.822-0.823-1.33-1.957-1.33-3.212
		s0.508-2.389,1.33-3.212c0.823-0.823,1.957-1.33,3.213-1.33c1.255,0,2.389,0.508,3.212,1.33c0.823,0.823,1.331,1.956,1.331,3.212
		c0,1.255-0.508,2.389-1.331,3.212c-0.752,0.752-1.765,1.235-2.891,1.313v-4.525h-0.642V301.212z M335.701,307.526h-7.041v-2.953
		c1.381-0.085,2.613-0.708,3.493-1.665c0.643,1.357,1.976,2.322,3.548,2.438V307.526z M335.701,304.703
		c-1.426-0.124-2.613-1.071-3.091-2.362c0.574-0.835,0.913-1.846,0.913-2.936c0-0.311-0.032-0.614-0.085-0.91l0.01,0.009
		c0.66-0.659,1.567-1.066,2.574-1.066c1.005,0,1.913,0.407,2.573,1.066c0.66,0.66,1.067,1.568,1.067,2.575
		c0,1.005-0.407,1.914-1.067,2.573c-0.589,0.588-1.375,0.973-2.253,1.05v-1.547c0.154-0.058,0.37-0.151,0.593-0.29
		c0.205-0.128,0.418-0.294,0.589-0.517c0.17-0.221,0.293-0.51,0.293-0.841h-0.642l0,0c-0.001,0.173-0.059,0.314-0.162,0.452
		c-0.155,0.206-0.423,0.38-0.655,0.491l-0.016,0.007v-1.379h-0.641V304.703z M375.161,307.526h-31.782v-53.467
		c0.332-0.01,0.664-0.019,0.993-0.019c9.514,0.001,17.196,3.99,22.519,10.022c5.322,6.032,8.271,14.113,8.271,22.272
		C375.161,298.334,375.161,305.927,375.161,307.526z M402.466,307.526h-14.182c4.854-1.519,9.83-4.861,14.182-9.015V307.526z
		 M414.384,307.526h-11.277v-9.638c0.338-0.333,0.671-0.67,1-1.012c4.744-4.943,8.552-10.765,10.277-16.045V307.526z
		 M426.297,307.526h-11.271v-26.695c1.724,5.28,5.532,11.102,10.277,16.045c0.328,0.34,0.659,0.676,0.995,1.007V307.526z
		 M426.94,307.526v-9.02c4.352,4.157,9.331,7.5,14.186,9.02H426.94z M460.491,307.526h-14.07c4.813-1.506,9.746-4.805,14.07-8.91
		V307.526z M472.52,307.526h-11.388v-9.529c0.376-0.368,0.746-0.741,1.11-1.121c4.745-4.943,8.553-10.765,10.278-16.045V307.526z
		 M484.323,307.526h-11.161v-26.695c1.724,5.28,5.532,11.102,10.277,16.045c0.291,0.303,0.587,0.601,0.884,0.897V307.526z
		 M484.964,307.526v-9.125c4.379,4.206,9.401,7.592,14.298,9.125H484.964z"/>
	<rect x="345.32" y="269.258" width="20.736" height="0.642"/>
	<rect x="349.056" y="275.898" width="0.641" height="3.149"/>
	<rect x="355.857" y="275.898" width="0.642" height="3.149"/>
	<rect x="362.658" y="275.898" width="0.641" height="3.149"/>
	<rect x="349.056" y="285.521" width="0.641" height="3.148"/>
	<rect x="355.857" y="285.521" width="0.642" height="3.148"/>
	<rect x="362.658" y="285.521" width="0.641" height="3.148"/>
	<rect x="369.459" y="285.521" width="0.642" height="3.148"/>
	<rect x="349.056" y="295.144" width="0.641" height="3.149"/>
	<rect x="355.857" y="295.143" width="0.642" height="3.149"/>
	<rect x="362.658" y="295.143" width="0.641" height="3.149"/>
	<rect x="369.459" y="295.143" width="0.642" height="3.149"/>
	<rect x="114.041" y="295.852" width="0.642" height="2.914"/>
	<rect x="120.023" y="295.852" width="0.642" height="2.914"/>
	<rect x="126.004" y="295.852" width="0.642" height="2.914"/>
	<rect x="131.986" y="295.852" width="0.642" height="2.914"/>
	<rect x="114.041" y="301.861" width="0.642" height="2.914"/>
	<rect x="120.023" y="301.861" width="0.642" height="2.914"/>
	<rect x="126.004" y="301.861" width="0.642" height="2.914"/>
	<rect x="131.986" y="301.861" width="0.642" height="2.914"/>
	<rect x="143.538" y="295.852" width="0.641" height="2.914"/>
	<rect x="149.52" y="295.852" width="0.642" height="2.914"/>
	<rect x="155.502" y="295.852" width="0.641" height="2.914"/>
	<rect x="161.484" y="295.852" width="0.642" height="2.914"/>
	<rect x="143.538" y="301.861" width="0.641" height="2.914"/>
	<rect x="149.52" y="301.861" width="0.642" height="2.914"/>
	<rect x="155.502" y="301.861" width="0.641" height="2.914"/>
	<rect x="161.484" y="301.861" width="0.642" height="2.914"/>
	<path d="M50.396,275.639l-1.958-6.122H30.219l-2.093,6.54H50.53L50.396,275.639z M29.006,275.416l1.682-5.257h17.281l1.681,5.257
		H29.006z"/>
</g>
</svg>
